<?xml version="1.0" encoding="utf-8"?>
<!-- Generator: Adobe Illustrator 26.0.2, SVG Export Plug-In . SVG Version: 6.00 Build 0)  -->
<!DOCTYPE svg PUBLIC "-//W3C//DTD SVG 1.1//EN" "http://www.w3.org/Graphics/SVG/1.1/DTD/svg11.dtd" [
	<!ENTITY ns_extend "http://ns.adobe.com/Extensibility/1.0/">
	<!ENTITY ns_ai "http://ns.adobe.com/AdobeIllustrator/10.0/">
	<!ENTITY ns_graphs "http://ns.adobe.com/Graphs/1.0/">
	<!ENTITY ns_vars "http://ns.adobe.com/Variables/1.0/">
	<!ENTITY ns_imrep "http://ns.adobe.com/ImageReplacement/1.0/">
	<!ENTITY ns_sfw "http://ns.adobe.com/SaveForWeb/1.0/">
	<!ENTITY ns_custom "http://ns.adobe.com/GenericCustomNamespace/1.0/">
	<!ENTITY ns_adobe_xpath "http://ns.adobe.com/XPath/1.0/">
]>
<svg version="1.1" id="Layer_1" xmlns:x="&ns_extend;" xmlns:i="&ns_ai;" xmlns:graph="&ns_graphs;" xmlns="http://www.w3.org/2000/svg" xmlns:xlink="http://www.w3.org/1999/xlink" x="0px" y="0px" viewBox="0 0 260 260" style="enable-background:new 0 0 260 260;" xml:space="preserve">
	<style type="text/css">
	.st0{fill:url(#SVGID_1_);}
	.st1{fill:url(#SVGID_00000118364024108330725290000015616701129451878294_);}
	.st2{fill:url(#SVGID_00000112604810715046470290000015755265355622794898_);}
	.st3{fill:url(#SVGID_00000062185735619976936510000000198377354971683243_);}
	.st4{fill:url(#SVGID_00000046328567098138402070000000633524537463600298_);}
</style>
	<metadata>
		Created by potrace 1.14, written by Peter Selinger 2001-2017
		<sfw xmlns="&ns_sfw;">
			<slices></slices>
			<sliceSourceBounds bottomLeftOrigin="true" height="171.1" width="244.8" x="8.2" y="44.5"></sliceSourceBounds>
		</sfw>
	</metadata>
	<g id="Layer_2_00000180332718583958221950000016321517568772926139_">
		<g id="Layer_1-2">

			<linearGradient id="SVGID_1_" gradientUnits="userSpaceOnUse" x1="115.9239" y1="223.1182" x2="63.2673" y2="147.9364" gradientTransform="matrix(1 0 0 -1 0 262)">
				<stop offset="0" style="stop-color:#B3B3B3" />
				<stop offset="0.3356" style="stop-color:#5A5A5A" />
				<stop offset="0.6881" style="stop-color:#000000" />
			</linearGradient>
			<path class="st0" d="M159.6,96.2l-7.3,32.6H24.4l-13-59l-2.7-12L8.4,56c-0.4-1.8-0.2-3.7,0.4-5.3c0.2-0.5,0.3-0.8,0.5-1.2
			c2.1-4,7-6,11.5-4.3l88.4,32.6L159.6,96.2z" />

			<linearGradient id="SVGID_00000114773962551455466670000001369476903360713874_" gradientUnits="userSpaceOnUse" x1="24.521" y1="90.059" x2="152.3686" y2="90.059" gradientTransform="matrix(1 0 0 -1 0 262)">
				<stop offset="0.5622" style="stop-color:#000000" />
				<stop offset="0.96" style="stop-color:#B3B3B3" />
			</linearGradient>
			<path style="fill:url(#SVGID_00000114773962551455466670000001369476903360713874_);" d="M152.4,178.3l-84.9,32.9l-8.3,3.2
			c-0.6,0.3-1.2,0.5-1.9,0.6c-7.1,1.6-14.1-2.9-15.7-10l-17.1-76.3v-0.1l76.2-0.1h50.5v0.2L152.4,178.3z" />
			<g>

				<radialGradient id="SVGID_00000023997815880194670590000012625030450146914961_" cx="131.3716" cy="133.1572" r="118.6903" gradientTransform="matrix(1 0 0 -1 0 262)" gradientUnits="userSpaceOnUse">
					<stop offset="0.33" style="stop-color:#676767" />
					<stop offset="0.6" style="stop-color:#636363" />
					<stop offset="0.81" style="stop-color:#616161" />
				</radialGradient>
				<polygon style="fill:url(#SVGID_00000023997815880194670590000012625030450146914961_);" points="243.2,44.5 207.2,215.5 
				112.1,180.5 109.7,169.3 109.8,169.3 99.8,124.4 100.6,101.9 120.7,112.2 			" />

				<radialGradient id="SVGID_00000122684039419943150060000008880300608136403881_" cx="119.078" cy="145.2303" r="122.3925" gradientTransform="matrix(1 0 0 -1 0 262)" gradientUnits="userSpaceOnUse">
					<stop offset="0.18" style="stop-color:#ABABAB" />
					<stop offset="0.19" style="stop-color:#AAAAAA" />
					<stop offset="0.4" style="stop-color:#ACACAC" />
					<stop offset="0.54" style="stop-color:#ACACAC" />
				</radialGradient>
				<path style="fill:url(#SVGID_00000122684039419943150060000008880300608136403881_);" d="M100.8,128.7l7.1,32.5l-67.2,39.6
				l-16.2-72.1l0,0l-13-59L8.9,58.1c0-0.2-0.1-0.3-0.1-0.5c-0.2-0.9-0.3-1.8-0.3-2.7v-0.1l92.1,47.1l20,10.2l-20.7,12.2l0.9,4.2
				L100.8,128.7z" />
			</g>

			<linearGradient id="SVGID_00000011031024808201848950000012799903303985272459_" gradientUnits="userSpaceOnUse" x1="207.1822" y1="1842.9056" x2="252.9391" y2="1842.9056" gradientTransform="matrix(1 0 0 1 0 -1712.8656)">
				<stop offset="8.000000e-02" style="stop-color:#494949" />
				<stop offset="0.42" style="stop-color:#5A5A5A" />
				<stop offset="0.59" style="stop-color:#616161" />
			</linearGradient>
			<polygon style="fill:url(#SVGID_00000011031024808201848950000012799903303985272459_);" points="207.2,215.5 213.7,211.7 
			253,47.9 243.2,44.5 		" />
		</g>
	</g>
</svg>